
<svg width="32" height="32" viewBox="0 0 32 32" fill="none" xmlns="http://www.w3.org/2000/svg">
<path opacity="0.79654" d="M16 32C24.8366 32 32 24.8366 32 16C32 7.16344 24.8366 0 16 0C7.16344 0 0 7.16344 0 16C0 24.8366 7.16344 32 16 32Z" fill="white"/>
<path d="M23.1959 10.7826L23.1958 10.7826C22.3965 10.0032 21.2377 9.50003 20.0214 9.50003C19.3058 9.50003 18.6354 9.66036 17.9853 9.98511L17.9851 9.9852C17.3362 10.3091 16.8141 10.7485 16.4024 11.3063L16.0001 11.8514L15.5978 11.3063C15.1861 10.7485 14.664 10.3091 14.0151 9.98516L14.015 9.98512C13.3646 9.66034 12.6942 9.5 11.9789 9.5C10.7626 9.5 9.60397 10.0032 8.80436 10.7826M23.1959 10.7826L11.691 20.5636C11.2517 20.1876 10.9203 19.8981 10.7047 19.7039L10.7044 19.7037C10.4884 19.5094 10.1909 19.2349 9.826 18.8846L9.82591 18.8845C9.4721 18.5449 9.21573 18.2558 9.04082 18.0318C8.85832 17.7981 8.64217 17.4996 8.40286 17.1389C8.17908 16.8014 8.01572 16.4772 7.91021 16.1875C7.6839 15.5649 7.5 14.7348 7.5 13.8869C7.5 12.6948 8.00799 11.5588 8.80436 10.7826M23.1959 10.7826C23.9922 11.5588 24.5002 12.6948 24.5 13.8868V13.8869C24.5 14.286 24.4587 14.6759 24.3771 15.0555C24.209 15.8371 24.0131 16.3682 23.5588 17.0542L23.5587 17.0542C23.3197 17.4152 23.1147 17.7062 22.9255 17.9412L22.9254 17.9413L23.1959 10.7826ZM8.80436 10.7826L8.45537 10.4245M8.80436 10.7826L8.45537 10.4245M8.45537 10.4245C7.56498 11.2924 7 12.5565 7 13.8869C7 14.8018 7.1973 15.69 7.44039 16.3586L20.0214 9.00003C19.2266 9.00003 18.4798 9.17916 17.7619 9.53782C17.204 9.81624 16.7271 10.1743 16.3266 10.6122C16.3522 10.6453 16.3775 10.6787 16.4024 10.7125L16.0001 11.0094L15.5978 10.7125C15.6228 10.6787 15.648 10.6453 15.6736 10.6122C15.2731 10.1743 14.7962 9.81623 14.2384 9.53779C13.5202 9.17916 12.7734 9 11.9789 9C10.6289 9 9.34594 9.55651 8.45537 10.4245ZM12.7978 21.5307L12.7979 21.5308C13.0328 21.7382 13.368 22.0537 13.796 22.4569C14.6931 23.3016 15.3548 24.084 15.979 24.9778L15.9791 24.978C15.9872 24.9896 15.9934 24.9964 15.997 25C15.9978 25 15.9988 25 15.9999 25C16.0122 25 16.0196 24.9988 16.023 24.998C16.0238 24.9979 16.0243 24.9977 16.0248 24.9976C16.0262 24.9962 16.0301 24.9923 16.0356 24.9841L16.0358 24.9839C16.4348 24.3942 16.8972 23.7895 17.4391 23.1923L17.4392 23.1922C17.973 22.6041 18.4248 22.1395 18.7925 21.8016L18.7925 21.8016C19.1533 21.4701 19.6692 21.01 20.3324 20.4267L12.7978 21.5307ZM12.7978 21.5307C12.7582 21.4958 12.7146 21.4573 12.667 21.4151M12.7978 21.5307L12.667 21.4151M12.667 21.4151C12.4375 21.212 12.114 20.9257 11.691 20.5636L12.667 21.4151ZM21.2861 19.5999L21.6203 19.9718L21.2858 19.6002L21.2861 19.5999ZM21.2861 19.5999C21.1753 19.6995 21.0482 19.8083 20.8963 19.9384M21.2861 19.5999L20.8963 19.9384M20.8963 19.9384C20.7384 20.0737 20.5536 20.2319 20.3325 20.4266L20.8963 19.9384Z" fill="black" stroke="black"/>
</svg>
