<svg width="255" height="35" viewBox="0 0 255 35" fill="none" xmlns="http://www.w3.org/2000/svg">
<path fill-rule="evenodd" clip-rule="evenodd" d="M219.146 20.264C219.082 20.3151 219.018 20.3661 218.954 20.4169C218.38 20.8699 217.795 21.309 217.199 21.7356C216.491 22.2433 215.761 22.7215 215.009 23.1658C214.23 23.6261 213.425 24.0447 212.606 24.434C211.264 25.0721 209.626 25.6228 208.115 25.3531C206.811 25.1206 205.713 24.505 205.06 23.3533C204.471 22.3149 204.199 21.1756 204.156 19.9976C204.156 19.9982 204.156 19.9987 204.153 19.9992C203.771 20.3606 203.376 20.7088 202.967 21.0409C202.62 21.3233 202.261 21.5941 201.901 21.8615C201.484 22.1716 201.048 22.4586 200.596 22.7188C200.138 22.9825 199.66 23.2139 199.161 23.3947C198.683 23.5676 198.179 23.6783 197.668 23.6783C197.266 23.6783 196.864 23.6283 196.485 23.4953C196.067 23.3487 195.719 23.0924 195.432 22.7647C195.1 22.3853 194.866 21.918 194.688 21.4535C194.446 20.8202 194.29 20.1322 194.177 19.4783C194.107 19.121 194.052 18.7606 194.005 18.3997C193.958 18.0327 193.915 17.6651 193.867 17.298C193.82 16.9438 193.778 16.5891 193.733 16.2347C193.697 15.9514 193.655 15.6644 193.592 15.3856C193.575 15.3106 193.557 15.2296 193.535 15.1488C193.532 15.1504 193.531 15.1519 193.53 15.1534C193.24 15.42 192.971 15.7457 192.731 16.0544C192.358 16.5326 192.01 17.0332 191.676 17.5381C191.254 18.1771 190.847 18.8252 190.464 19.487C189.803 20.6266 189.089 21.837 188.281 22.8843C187.806 23.5018 187.098 24.2449 186.238 24.2449C185.282 24.2449 184.587 23.7693 184.261 22.8944C184.259 22.8898 184.258 22.8859 184.257 22.8813C183.904 21.8515 183.829 20.4382 183.801 19.3591C183.773 18.2688 183.728 16.9903 183.478 15.9254C183.444 15.7834 183.332 15.3507 183.216 15.1498C183.083 15.2319 182.907 15.3865 182.837 15.4506C182.415 15.8364 182.03 16.2996 181.68 16.7466C181.168 17.4002 180.687 18.0797 180.222 18.7653C179.662 19.5901 179.143 20.4416 178.644 21.3019C178.48 21.5852 178.312 21.8665 178.143 22.147C177.951 22.4646 177.763 22.7841 177.569 23.1008C177.381 23.4092 177.192 23.7168 176.997 24.0211C176.84 24.2662 176.675 24.5055 176.505 24.7421C176.132 25.2598 175.619 25.6125 174.953 25.6125C173.879 25.6125 173.168 25.0296 172.855 24.0449C172.802 23.877 172.752 23.7087 172.702 23.5399C172.659 23.3928 172.628 23.2443 172.603 23.0934C172.576 22.9332 172.559 22.7712 172.553 22.6089C172.546 22.4057 172.547 22.2008 172.547 21.9974C172.547 21.6093 172.556 21.2203 172.586 20.8332C172.614 20.4845 172.649 20.1366 172.69 19.7892C172.734 19.4106 172.794 19.0335 172.853 18.6567C172.923 18.201 172.982 17.743 173.037 17.2853C173.093 16.8247 173.135 16.3618 173.174 15.8996C173.216 15.4175 173.253 14.935 173.292 14.4526C173.326 14.0158 173.366 13.5795 173.404 13.1429C173.434 12.8062 173.477 12.4468 173.567 12.1193C173.618 11.9013 173.734 11.699 173.863 11.5158C174.001 11.3187 174.158 11.1345 174.333 10.9672C174.507 10.8002 174.693 10.6467 174.9 10.5196C175.122 10.3749 175.371 10.2709 175.642 10.2709C175.952 10.2709 176.247 10.3401 176.511 10.5209C176.722 10.6712 176.887 10.865 177.012 11.0876C177.142 11.3179 177.216 11.5733 177.26 11.8313C177.304 12.0844 177.327 12.3395 177.327 12.5963C177.327 12.9207 177.288 13.2544 177.248 13.5764C177.198 13.9804 177.136 14.3834 177.068 14.785C176.993 15.232 176.906 15.6774 176.82 16.1228C176.736 16.562 176.653 17.0014 176.562 17.4395C176.484 17.8195 176.407 18.1999 176.334 18.581C176.282 18.8538 176.229 19.1327 176.196 19.4081C176.196 19.4178 176.193 19.4259 176.192 19.4355C176.18 19.5027 176.168 19.5702 176.157 19.6378C176.424 19.2613 176.678 18.8749 176.93 18.4886C177.212 18.056 177.489 17.6201 177.765 17.184C177.988 16.8323 178.206 16.4773 178.424 16.1231C178.677 15.7152 178.938 15.3128 179.203 14.9128C179.463 14.5216 179.731 14.1362 180.009 13.7577C180.247 13.4348 180.496 13.1142 180.765 12.8158C181.198 12.3361 181.7 11.8975 182.276 11.5867C182.814 11.2962 183.4 11.1391 184.015 11.1391C184.69 11.1391 185.265 11.4059 185.728 11.8794C186.204 12.3655 186.476 12.9799 186.613 13.6315C186.685 13.9762 186.739 14.3235 186.772 14.6739C186.808 15.0656 186.846 15.4572 186.874 15.8496C186.903 16.2563 186.933 16.663 186.96 17.07C186.985 17.4525 187.01 17.8352 187.044 18.2174C187.068 18.4813 187.099 18.7615 187.164 19.0194C187.182 19.0889 187.2 19.1599 187.221 19.2305C187.384 18.998 187.552 18.7185 187.62 18.6028C187.886 18.1506 188.149 17.6965 188.417 17.2449C188.741 16.6963 189.063 16.146 189.391 15.5991C189.752 14.9969 190.144 14.4127 190.564 13.8484C190.951 13.3299 191.357 12.821 191.8 12.3464C192.158 11.962 192.552 11.5792 192.983 11.2707C193.329 11.0229 193.747 10.7908 194.189 10.7908C194.388 10.7908 194.586 10.8105 194.764 10.8444C194.973 10.8772 195.179 10.9352 195.375 11.0139C195.558 11.0876 195.734 11.178 195.897 11.2882C195.905 11.2936 195.911 11.2985 195.919 11.3043C196.08 11.425 196.22 11.5671 196.326 11.736C196.519 12.0434 196.653 12.3785 196.732 12.7303C196.816 13.1059 196.865 13.4903 196.893 13.8735C196.926 14.3236 196.954 14.7742 196.979 15.2249C197.008 15.762 197.05 16.298 197.11 16.8328C197.202 17.6576 197.364 18.7463 197.737 19.5004C197.908 19.8473 198.139 20.1295 198.56 20.1295C198.742 20.1295 199.005 20.0286 199.159 19.9645C199.503 19.8133 199.836 19.6385 200.155 19.4429C200.534 19.2111 200.901 18.9586 201.255 18.6927C201.614 18.4235 201.967 18.1453 202.308 17.8554C202.629 17.5835 202.943 17.3041 203.253 17.0076C203.566 16.7189 203.873 16.4246 204.181 16.1304C204.298 16.0181 204.416 15.9053 204.532 15.7922C204.688 15.1083 204.902 14.417 205.108 13.7491C205.25 13.2871 205.399 12.8262 205.561 12.37C205.677 12.041 205.807 11.7023 205.968 11.3914C206.269 10.8112 206.76 10.3916 207.346 10.091C207.951 9.78047 208.607 9.62708 209.287 9.74849C210.036 9.88196 210.12 10.6084 210.006 11.2154C209.928 11.6283 209.808 12.0375 209.667 12.4337C209.519 12.8481 209.373 13.2632 209.22 13.6761C208.973 14.3447 208.737 15.0212 208.539 15.7049C208.39 16.2175 208.248 16.741 208.149 17.2649C207.964 18.2512 207.929 19.2603 208.012 20.2587C208.056 20.7817 208.185 21.5044 208.817 21.6172C209.634 21.7627 210.565 21.5592 211.337 21.3019C211.893 21.1168 212.436 20.8992 212.971 20.664C213.544 20.4118 214.101 20.1225 214.646 19.8168C215.218 19.4957 215.788 19.1701 216.346 18.8249C216.89 18.4882 217.426 18.1393 217.952 17.777C218.378 17.4839 218.8 17.1846 219.216 16.8783C219.216 16.8743 219.218 16.8702 219.218 16.8662C219.364 16.0896 219.554 15.3202 219.769 14.559C219.993 13.7629 220.241 12.9734 220.506 12.1891C220.77 11.4103 221.042 10.6341 221.333 9.86477C221.612 9.12695 221.895 8.39039 222.186 7.66952C222.338 7.26803 222.497 6.86899 222.659 6.47131C222.774 6.18918 222.89 5.90721 223.002 5.62388C223.102 5.37146 223.198 5.11724 223.286 4.84855C223.403 4.51726 223.519 4.18582 223.632 3.86578C223.714 3.61645 223.803 3.37081 223.89 3.13708C223.95 2.96296 224.015 2.79072 224.079 2.6063C224.18 2.33787 224.311 2.08151 224.477 1.83315C224.645 1.59331 224.841 1.37652 225.062 1.20741C225.294 1.0165 225.56 0.876246 225.84 0.794005C226.148 0.696298 226.469 0.681267 226.788 0.738302C227.502 0.865817 227.979 1.31309 228.187 1.98585C228.224 2.10725 228.219 2.22258 228.171 2.34059C228.053 2.63328 227.931 2.92502 227.802 3.21348C227.678 3.48922 227.569 3.77173 227.466 4.05535C227.464 4.06158 227.462 4.06685 227.46 4.07309C227.063 5.0575 226.66 6.03946 226.251 7.01968C226.03 7.55137 225.814 8.08796 225.592 8.5992C225.334 9.25447 225.072 9.90812 224.815 10.5638C224.536 11.2737 224.27 11.9878 224.018 12.707C223.767 13.4251 223.531 14.1484 223.319 14.8788C223.129 15.5368 222.958 16.2036 222.831 16.8762C222.719 17.4709 222.652 18.0801 222.66 18.6852C222.665 19.1387 222.724 19.616 222.891 20.0417C223.028 20.3882 223.238 20.6817 223.529 20.921C223.843 21.1797 224.247 21.3196 224.647 21.391C225.203 21.4901 225.756 21.4591 226.303 21.3241C226.924 21.171 227.522 20.9427 228.091 20.6596C228.701 20.3569 229.286 20.0121 229.842 19.6252C230.387 19.2468 230.922 18.8548 231.436 18.4588C231.785 18.1771 232.137 17.8981 232.486 17.6327C232.734 17.4361 232.984 17.2415 233.23 17.0435C233.237 17.0387 233.242 17.0339 233.249 17.029C233.564 15.5435 234.096 14.1232 234.843 12.7892C235.712 11.237 236.927 9.92016 238.334 8.81125C238.339 8.80744 238.343 8.80432 238.348 8.80067C238.653 8.57616 238.976 8.37791 239.312 8.20124C239.661 8.01748 240.027 7.8641 240.402 7.7408C240.777 7.61778 241.166 7.52914 241.559 7.4843C241.952 7.43958 242.348 7.43484 242.741 7.48636C242.75 7.48763 242.758 7.48891 242.767 7.49044C242.899 7.51401 243.033 7.55317 243.161 7.59041C243.169 7.59271 243.175 7.59448 243.182 7.59694C243.363 7.65668 243.538 7.73403 243.707 7.82131C243.885 7.91345 244.055 8.01888 244.215 8.13853C244.412 8.27647 244.573 8.44652 244.683 8.63986C244.92 9.02821 245.116 9.44596 245.239 9.88212C245.366 10.3369 245.39 10.8069 245.325 11.2736C245.253 11.7955 245.093 12.2932 244.855 12.766C244.6 13.2729 244.254 13.7326 243.86 14.146C243.399 14.63 242.863 15.0581 242.312 15.4424C241.631 15.9181 240.909 16.3487 240.18 16.7514C239.615 17.0635 239.048 17.3727 238.482 17.6819C237.845 18.0293 237.178 18.3341 236.506 18.6135C236.44 19.2002 236.522 19.7834 236.918 20.2626C237.409 20.8577 238.167 21.1335 238.917 21.2673C239.47 21.3659 240.032 21.3882 240.592 21.3506C241.191 21.3104 241.785 21.2179 242.37 21.0836C242.966 20.9466 243.552 20.7716 244.126 20.5621C244.686 20.3575 245.242 20.1369 245.782 19.885C246.694 19.4594 247.588 18.9946 248.452 18.4822C249.283 17.9889 250.102 17.4757 250.903 16.9373L251.886 16.2773C251.896 16.2707 251.904 16.2653 251.915 16.2591C252.339 16.01 253.003 15.6493 253.517 15.7407C253.995 15.826 254.177 16.2535 254.096 16.6858C254.03 17.033 253.71 17.4146 253.479 17.6773C253.469 17.6887 253.46 17.698 253.449 17.7086C252.735 18.4026 251.976 19.0552 251.191 19.6723C250.372 20.3159 249.518 20.9167 248.631 21.4691C247.748 22.0192 246.834 22.5202 245.893 22.9709C244.988 23.4042 244.053 23.7828 243.092 24.0801C242.197 24.3569 241.275 24.5546 240.34 24.647C239.477 24.7324 238.607 24.7019 237.754 24.546C236.168 24.2562 234.731 23.5788 233.827 22.2371C233.483 21.7275 233.263 21.169 233.136 20.5865C232.91 20.7877 232.68 20.9834 232.443 21.1721C232.131 21.4217 231.816 21.6688 231.497 21.9114C231.183 22.1508 230.863 22.3836 230.534 22.6043C230.036 22.9389 229.516 23.2432 228.981 23.5177C228.421 23.8048 227.842 24.0543 227.245 24.2581C226.646 24.4629 226.03 24.6166 225.4 24.6989C224.786 24.779 224.163 24.7748 223.552 24.6658C222.795 24.5307 222.078 24.2691 221.432 23.8589C220.777 23.4431 220.258 22.8927 219.864 22.2351C219.501 21.6274 219.275 20.9536 219.145 20.264L219.146 20.264ZM154.461 11.7891C154.446 12.0888 154.579 12.4255 154.715 12.6865C154.94 13.1205 155.23 13.5208 155.564 13.8817C155.944 14.2916 156.371 14.6512 156.837 14.966C157.284 15.2686 157.774 15.5054 158.295 15.6621C158.309 15.6665 158.322 15.6709 158.336 15.6764C158.554 15.761 158.783 15.8355 159.003 15.9158C159.376 16.0517 159.755 16.1747 160.13 16.3027C160.509 16.4315 160.886 16.5642 161.264 16.694C161.468 16.7642 161.682 16.8383 161.891 16.8938C163.978 17.4488 166.458 18.2731 168.191 19.5691C169.566 20.5975 170.406 21.9425 170.406 23.6511C170.406 24.2007 170.283 24.7347 170.063 25.24C169.846 25.7404 169.568 26.2118 169.246 26.6553C168.932 27.0881 168.588 27.4995 168.205 27.8767C167.877 28.199 167.538 28.52 167.183 28.796C166.785 29.1199 166.37 29.4248 165.945 29.7146C165.463 30.0428 164.969 30.3525 164.459 30.6376C163.93 30.9335 163.386 31.2035 162.835 31.4582C162.278 31.7158 161.707 31.944 161.124 32.1407C160.543 32.3368 159.957 32.516 159.363 32.6712C158.761 32.8286 158.153 32.9666 157.541 33.0832C156.966 33.1927 156.389 33.2822 155.809 33.3578C155.305 33.4235 154.795 33.4649 154.286 33.4649C153.848 33.4649 153.387 33.3933 152.958 33.3145C152.423 33.2166 151.898 33.0804 151.386 32.9011C150.904 32.7327 150.434 32.5175 150.011 32.2369C149.59 31.9584 149.251 31.5644 149.251 31.0457C149.251 30.8133 149.28 30.5779 149.321 30.3493C149.369 30.0853 149.433 29.8247 149.525 29.5718C149.611 29.3319 149.715 29.0909 149.855 28.8886C150.042 28.6046 150.321 28.4019 150.678 28.4019C150.996 28.4019 151.31 28.4546 151.611 28.5506C151.913 28.647 152.218 28.7336 152.511 28.8184C152.913 28.9256 153.324 29.0069 153.735 29.0764C154.287 29.17 154.877 29.1902 155.437 29.1902C156.161 29.1902 156.886 29.1061 157.595 28.9641C158.351 28.8127 159.094 28.6104 159.82 28.3568C160.535 28.107 161.237 27.8183 161.916 27.486C162.535 27.1833 163.135 26.8458 163.694 26.4799C163.974 26.2825 164.252 26.081 164.526 25.8751C164.81 25.6611 165.079 25.4302 165.326 25.1757C165.555 24.9393 165.753 24.6783 165.919 24.3957C166.047 24.1765 166.119 23.9426 166.119 23.6899C166.119 23.3125 165.635 22.954 165.35 22.7712C164.749 22.3858 164.106 22.0683 163.426 21.8369C162.825 21.6324 162.216 21.4444 161.601 21.285C160.826 21.0845 160.06 20.8356 159.305 20.5734C158.374 20.2503 157.454 19.896 156.539 19.5331C154.842 18.8598 153.361 17.8721 152.141 16.5406C150.875 15.1584 150.289 13.5027 150.29 11.6721C150.26 10.6979 150.566 9.78556 151.115 8.97419C151.707 8.10022 152.48 7.35484 153.332 6.72097C154.29 6.00782 155.34 5.41639 156.434 4.92343C157.582 4.4057 158.777 3.99391 160.005 3.69728C160.011 3.696 160.015 3.69473 160.021 3.69363C160.321 3.63036 160.621 3.5702 160.923 3.51695C161.292 3.45192 161.662 3.39363 162.034 3.35178C162.394 3.31138 162.754 3.27509 163.115 3.2416C163.427 3.21261 163.744 3.18782 164.058 3.18782C164.441 3.18782 164.835 3.22263 165.216 3.26154C165.685 3.30909 166.151 3.37183 166.616 3.44474C167.084 3.51816 167.548 3.61422 167.994 3.7378C168.391 3.84011 168.796 3.98171 169.138 4.17994C169.775 4.52736 170.347 4.97425 170.774 5.55446C171.145 6.05824 171.407 6.63168 171.407 7.26067C171.407 7.48369 171.381 7.71068 171.351 7.94495C171.31 8.20484 171.25 8.46215 171.182 8.72963C171.111 8.98261 171.025 9.23124 170.922 9.4876C170.822 9.72175 170.697 9.95509 170.54 10.1346C170.06 10.724 169.271 10.8845 168.536 10.8845C168.229 10.8845 167.979 10.641 167.979 10.3425C167.979 9.71634 167.92 9.01037 167.677 8.42433C167.604 8.2463 167.453 8.11188 167.291 8.00863C167.03 7.84141 166.748 7.70755 166.454 7.60307C166.141 7.49168 165.819 7.40416 165.489 7.35402C165.218 7.31269 164.93 7.27708 164.655 7.27708C164.102 7.27708 163.548 7.28858 162.996 7.31473C162.486 7.33884 161.978 7.38724 161.474 7.46854C160.966 7.55065 160.462 7.65973 159.966 7.79522C159.428 7.94196 158.901 8.12597 158.388 8.34128C157.939 8.52976 157.502 8.75389 157.075 8.98423C156.641 9.21796 156.23 9.49057 155.848 9.7987C155.493 10.0852 155.176 10.4099 154.903 10.7721C154.672 11.0786 154.52 11.413 154.461 11.7891H154.461ZM241.754 10.8445C241.731 10.7956 241.707 10.7507 241.679 10.7193C241.19 10.6704 240.665 10.9991 240.304 11.2817C239.579 11.85 238.948 12.5979 238.41 13.3336C238.406 13.3393 238.403 13.3441 238.398 13.3495C238.25 13.5381 238.124 13.7461 238.012 13.9569C237.876 14.2129 237.742 14.4705 237.617 14.7317C237.588 14.7917 237.559 14.852 237.531 14.9126C237.653 14.8535 237.775 14.7945 237.896 14.7354C238.377 14.5022 238.847 14.2469 239.301 13.9689C239.595 13.7893 239.884 13.6033 240.168 13.4088C240.446 13.2182 240.709 13.0091 240.955 12.7809C241.172 12.5794 241.37 12.3578 241.534 12.0987C241.669 11.8961 241.759 11.6727 241.794 11.4514C241.808 11.3313 241.809 11.2104 241.801 11.0898C241.801 11.0837 241.801 11.0784 241.801 11.0723C241.799 10.9942 241.781 10.9179 241.755 10.8445H241.754ZM133.234 12.7809C133.079 12.7857 132.925 12.7899 132.77 12.7899C132.468 12.7899 132.178 12.8331 131.891 12.9277C131.582 13.0293 131.289 13.1695 131.013 13.337C130.71 13.5208 130.427 13.7338 130.161 13.9661C129.871 14.2202 129.589 14.4825 129.311 14.7631C129.055 15.0126 128.822 15.292 128.604 15.5738C128.335 15.9224 128.087 16.2874 127.856 16.661C127.6 17.0754 127.354 17.4956 127.125 17.9253C126.903 18.3445 126.7 18.7742 126.525 19.2142C126.366 19.6112 126.231 20.017 126.123 20.4302C126.04 20.7499 125.985 21.0846 125.985 21.4151C125.985 21.521 125.999 21.6324 126.016 21.7369C126.037 21.8706 126.072 22.0007 126.122 22.1378C126.146 22.2084 126.182 22.2773 126.232 22.3389C126.736 22.3289 127.322 22.1273 127.776 21.9402C128.707 21.557 129.542 21.0311 130.29 20.3693C131.053 19.6937 131.701 18.913 132.218 18.0649C132.98 16.7183 133.373 15.2779 133.373 13.7401C133.373 13.5423 133.359 13.3418 133.342 13.1446C133.332 13.0259 133.305 12.8827 133.235 12.7821C133.235 12.7816 133.235 12.7814 133.235 12.7809L133.234 12.7809ZM46.9647 12.7809C46.8103 12.7857 46.6557 12.7899 46.5012 12.7899C46.1986 12.7899 45.9086 12.8331 45.6219 12.9277C45.3135 13.0293 45.0199 13.1695 44.7438 13.337C44.4407 13.5208 44.1576 13.7338 43.8923 13.9661C43.6024 14.2202 43.3204 14.4825 43.0424 14.7631C42.7858 15.0126 42.5528 15.292 42.3351 15.5738C42.0659 15.9224 41.8179 16.2874 41.587 16.661C41.331 17.0754 41.0848 17.4956 40.8564 17.9253C40.6336 18.3445 40.4312 18.7742 40.2557 19.2142C40.0973 19.6112 39.9617 20.017 39.8543 20.4302C39.771 20.7499 39.7163 21.0846 39.7163 21.4151C39.7163 21.521 39.7302 21.6324 39.7471 21.7369C39.7684 21.8706 39.8035 22.0007 39.8533 22.1378C39.8775 22.2084 39.9129 22.2773 39.9626 22.3389C40.4667 22.3289 41.0528 22.1273 41.5071 21.9402C42.4377 21.557 43.2734 21.0311 44.021 20.3693C44.7842 19.6937 45.4318 18.913 45.9492 18.0649C46.7114 16.7183 47.1037 15.2779 47.1037 13.7401C47.1037 13.5423 47.0901 13.3418 47.0735 13.1446C47.0637 13.0259 47.036 12.8827 46.9656 12.7821C46.9656 12.7816 46.9656 12.7814 46.9656 12.7809L46.9647 12.7809ZM122.561 21.09C122.233 21.3548 121.895 21.6097 121.556 21.8614C121.138 22.1716 120.703 22.4586 120.251 22.7188C119.793 22.9824 119.314 23.2139 118.815 23.3946C118.338 23.5675 117.834 23.6782 117.322 23.6782C116.921 23.6782 116.519 23.6282 116.14 23.4953C115.722 23.3487 115.374 23.0923 115.087 22.7647C114.755 22.3853 114.52 21.9179 114.342 21.4535C114.1 20.8201 113.945 20.1322 113.831 19.4783C113.761 19.121 113.707 18.7605 113.66 18.3997C113.612 18.0326 113.569 17.665 113.521 17.2979C113.475 16.9437 113.432 16.589 113.387 16.2347C113.351 15.9513 113.31 15.6644 113.247 15.3855C113.23 15.3106 113.211 15.2295 113.189 15.1488C113.187 15.1503 113.186 15.1519 113.185 15.1534C112.895 15.4199 112.626 15.7457 112.385 16.0543C112.012 16.5325 111.665 17.0332 111.331 17.5381C110.908 18.1771 110.502 18.8251 110.119 19.4869C109.458 20.6265 108.743 21.8369 107.936 22.8842C107.46 23.5018 106.753 24.2449 105.893 24.2449C104.937 24.2449 104.242 23.7693 103.916 22.8944C103.913 22.8897 103.913 22.8858 103.911 22.8812C103.559 21.8514 103.483 20.4381 103.455 19.359C103.427 18.2688 103.383 16.9902 103.133 15.9253C103.099 15.7833 102.987 15.3507 102.87 15.1497C102.738 15.2318 102.562 15.3865 102.492 15.4505C102.07 15.8363 101.685 16.2996 101.335 16.7466C100.823 17.4001 100.341 18.0796 99.8764 18.7653C99.317 19.5901 98.7979 20.4415 98.2989 21.3018C98.1347 21.5851 97.9667 21.8665 97.7975 22.147C97.6059 22.4645 97.4174 22.7841 97.2242 23.1007C97.0361 23.4091 96.8466 23.7167 96.6515 24.021C96.4945 24.2661 96.3297 24.5054 96.1594 24.742C95.7864 25.2598 95.2736 25.6125 94.608 25.6125C93.5335 25.6125 92.8227 25.0295 92.5101 24.0449C92.457 23.877 92.4067 23.7087 92.3571 23.5399C92.314 23.3927 92.2828 23.2442 92.2574 23.0934C92.2305 22.9331 92.2135 22.7712 92.2077 22.6088C92.2005 22.4056 92.2021 22.2007 92.2021 21.9973C92.2021 21.6093 92.2108 21.2203 92.2412 20.8331C92.2685 20.4845 92.3043 20.1365 92.3445 19.7891C92.3885 19.4105 92.4492 19.0334 92.5074 18.6566C92.5074 18.6537 92.5074 18.6509 92.51 18.6481C92.4447 18.7192 92.3791 18.7902 92.3135 18.8609C91.9509 19.2521 91.5757 19.6319 91.1876 19.9993C90.8058 20.3605 90.4108 20.7087 90.002 21.0408C89.6544 21.3232 89.2956 21.5941 88.9356 21.8614C88.5183 22.1716 88.0829 22.4586 87.6309 22.7188C87.1727 22.9824 86.6942 23.2139 86.1951 23.3946C85.7175 23.5675 85.2137 23.6782 84.7024 23.6782C84.301 23.6782 83.8988 23.6282 83.5198 23.4953C83.1017 23.3487 82.7537 23.0923 82.467 22.7647C82.1349 22.3853 81.9003 21.9179 81.7225 21.4535C81.4803 20.8201 81.3245 20.1322 81.2112 19.4783C81.1411 19.121 81.0869 18.7605 81.04 18.3997C80.9921 18.0326 80.9492 17.665 80.901 17.2979C80.8545 16.9437 80.8121 16.589 80.7673 16.2347C80.7315 15.9513 80.6897 15.6644 80.6266 15.3855C80.6096 15.3106 80.5911 15.2295 80.5694 15.1488C80.5668 15.1503 80.5661 15.1519 80.5645 15.1534C80.2745 15.4199 80.0061 15.7457 79.7654 16.0543C79.3923 16.5325 79.0445 17.0332 78.7108 17.5381C78.2884 18.1771 77.8821 18.8251 77.4985 19.4869C76.8381 20.6265 76.1233 21.8369 75.3163 22.8842C74.8404 23.5018 74.133 24.2449 73.2731 24.2449C72.3166 24.2449 71.6216 23.7693 71.2959 22.8944C71.2934 22.8897 71.2929 22.8858 71.2913 22.8812C70.9386 21.8514 70.8633 20.4381 70.8354 19.359C70.8073 18.2688 70.763 16.9902 70.5126 15.9253C70.4792 15.7833 70.3664 15.3507 70.2503 15.1497C70.1178 15.2318 69.9416 15.3865 69.8716 15.4505C69.4501 15.8363 69.065 16.2996 68.7146 16.7466C68.2026 17.4001 67.7214 18.0796 67.2563 18.7653C66.697 19.5901 66.1779 20.4415 65.6789 21.3018C65.5147 21.5851 65.3466 21.8665 65.1775 22.147C64.9858 22.4645 64.7973 22.7841 64.6042 23.1007C64.4161 23.4091 64.2266 23.7167 64.0315 24.021C63.8744 24.2661 63.7097 24.5054 63.5394 24.742C63.1664 25.2598 62.6535 25.6125 61.9879 25.6125C60.9134 25.6125 60.2027 25.0295 59.8901 24.0449C59.8369 23.877 59.7866 23.7087 59.7371 23.5399C59.6939 23.3927 59.6627 23.2442 59.6374 23.0934C59.6105 22.9331 59.5935 22.7712 59.5877 22.6088C59.5805 22.4056 59.582 22.2007 59.582 21.9973C59.582 21.6093 59.5908 21.2203 59.6212 20.8331C59.6485 20.4845 59.6842 20.1365 59.7245 19.7891C59.76 19.4834 59.8065 19.1787 59.8537 18.8742C59.8025 18.9207 59.7511 18.9661 59.6999 19.0101C59.0688 19.5787 58.4311 20.1398 57.7921 20.6998C57.1701 21.2451 56.5066 21.7475 55.8046 22.1918C55.1231 22.6232 54.3973 22.9792 53.6316 23.2461C52.8233 23.5278 51.9707 23.6387 51.1145 23.6313C50.6539 23.6274 50.2014 23.5476 49.7676 23.3972C49.3147 23.2403 48.8942 23.0135 48.5115 22.7305C48.1164 22.4384 47.7777 22.0888 47.4969 21.6904C47.3879 21.5358 47.2908 21.3754 47.206 21.2096C47.0933 21.3219 46.9807 21.4339 46.8676 21.5457C46.5222 21.8872 46.1697 22.222 45.8149 22.5542C45.4455 22.9002 45.0624 23.2327 44.6687 23.5523C44.2712 23.8751 43.8587 24.1815 43.4257 24.4577C43.1468 24.6356 42.8505 24.7928 42.5549 24.9427C42.2147 25.1152 41.8659 25.272 41.5022 25.4188C41.1349 25.5596 40.7607 25.6835 40.3865 25.7717C40.0328 25.8617 39.6659 25.9192 39.2998 25.9192C38.7498 25.9192 38.2491 25.7478 37.8336 25.3962C37.464 25.0835 37.1655 24.7099 36.937 24.2886C36.7082 23.8667 36.54 23.4191 36.4321 22.9538C36.3368 22.5431 36.2689 22.1125 36.2689 21.6906C36.2689 20.9448 36.385 20.206 36.5881 19.4878C36.7951 18.7552 37.0634 18.0394 37.3959 17.352C37.7205 16.6809 38.085 16.0275 38.4923 15.4005C38.8605 14.8337 39.2533 14.2799 39.6798 13.7531C40.1226 13.2065 40.6191 12.7007 41.1475 12.2322C41.6994 11.7426 42.2861 11.2929 42.9062 10.8878C43.479 10.5136 44.0833 10.1826 44.7186 9.91903C45.2565 9.69573 45.8496 9.52719 46.4386 9.52719C46.6702 9.52719 46.9016 9.52719 47.1332 9.52719C47.398 9.52719 47.6634 9.53856 47.9267 9.56688C48.1864 9.59493 48.4451 9.63801 48.6988 9.69898C48.9791 9.76634 49.2504 9.87162 49.4943 10.0224C49.687 10.1415 49.8492 10.3377 49.9722 10.5095C50.1267 10.7163 50.2597 10.9381 50.37 11.1585C50.4924 11.3908 50.5967 11.6322 50.6741 11.87C50.7483 12.0816 50.816 12.3247 50.816 12.5495C50.816 13.0308 50.6933 13.5587 50.5644 14.0225C50.4142 14.6591 50.2627 15.2957 50.1062 15.9309C49.973 16.4706 49.9077 17.0227 49.9077 17.5776C49.9077 17.8837 49.9611 18.1862 50.0538 18.4781C50.1483 18.7754 50.2851 19.0524 50.4714 19.3052C50.6413 19.5358 50.8441 19.7334 51.0925 19.8834C51.3222 20.022 51.5707 20.0827 51.8407 20.0827C52.4438 20.0827 53.0315 19.9486 53.5897 19.7314C54.2663 19.468 54.9063 19.1188 55.5083 18.7205C56.2065 18.2588 56.8683 17.7458 57.4952 17.1958C58.169 16.6047 58.8215 15.9911 59.4481 15.3527C59.533 15.2465 59.6315 15.1434 59.7153 15.0482C59.8517 14.8878 59.997 14.7351 60.1426 14.5827C60.2044 14.5179 60.2672 14.4539 60.3313 14.3913C60.3646 13.9749 60.4024 13.5589 60.439 13.1428C60.4686 12.8061 60.5122 12.4468 60.6022 12.1193C60.6528 11.9012 60.7688 11.699 60.8973 11.5158C61.0356 11.3186 61.1925 11.1345 61.3676 10.9671C61.5419 10.8002 61.728 10.6467 61.9351 10.5196C62.1568 10.3749 62.406 10.2708 62.6771 10.2708C62.9868 10.2708 63.2817 10.34 63.5456 10.5208C63.7569 10.6712 63.9217 10.865 64.0471 11.0876C64.1769 11.3178 64.251 11.5732 64.2952 11.8312C64.3386 12.0843 64.3616 12.3395 64.3616 12.5962C64.3616 12.9206 64.3225 13.2543 64.2827 13.5763C64.2327 13.9804 64.1709 14.3834 64.103 14.785C64.0273 15.232 63.9409 15.6774 63.8551 16.1228C63.7705 16.5619 63.6873 17.0013 63.5973 17.4394C63.5191 17.8195 63.4415 18.1998 63.369 18.581C63.3172 18.8538 63.2633 19.1326 63.2303 19.4081C63.2303 19.4177 63.2278 19.4258 63.2265 19.4355C63.2147 19.5027 63.2031 19.5701 63.1918 19.6377C63.459 19.2612 63.713 18.8749 63.9647 18.4886C64.2467 18.0559 64.5237 17.62 64.7999 17.184C65.0229 16.8322 65.2405 16.4772 65.4593 16.123C65.7114 15.7152 65.9728 15.3127 66.238 14.9127C66.4973 14.5216 66.7656 14.1362 67.0439 13.7576C67.2814 13.4347 67.5303 13.1141 67.7998 12.8157C68.2329 12.3361 68.7346 11.8975 69.3108 11.5866C69.8491 11.2961 70.4344 11.1391 71.0503 11.1391C71.7249 11.1391 72.2997 11.4059 72.7628 11.8793C73.2385 12.3655 73.5108 12.9798 73.6478 13.6315C73.7202 13.9762 73.7736 14.3235 73.8064 14.6738C73.8429 15.0656 73.8804 15.4572 73.9088 15.8496C73.9383 16.2562 73.9678 16.663 73.9946 17.0699C74.0197 17.4524 74.0451 17.8352 74.0791 18.2173C74.1027 18.4813 74.1342 18.7615 74.199 19.0193C74.2164 19.0888 74.2352 19.1598 74.2559 19.2304C74.4192 18.9979 74.5866 18.7184 74.6548 18.6028C74.9212 18.1505 75.1841 17.6965 75.4514 17.2448C75.7762 16.6962 76.0978 16.1459 76.4256 15.599C76.7864 14.9969 77.1787 14.4126 77.5993 13.8484C77.9857 13.3298 78.3921 12.8209 78.8346 12.3464C79.193 11.962 79.5871 11.5792 80.0175 11.2707C80.3634 11.0228 80.7821 10.7907 81.224 10.7907C81.4231 10.7907 81.6206 10.8105 81.799 10.8444C82.008 10.8772 82.2142 10.9351 82.4097 11.0139C82.5926 11.0876 82.7686 11.178 82.9314 11.2881C82.9394 11.2935 82.9463 11.2984 82.9538 11.3042C83.1144 11.425 83.2545 11.567 83.3608 11.7359C83.5542 12.0434 83.6876 12.3785 83.7665 12.7303C83.8508 13.1058 83.8996 13.4903 83.9276 13.8735C83.9605 14.3236 83.9892 14.7741 84.0137 15.2248C84.0429 15.7619 84.0851 16.298 84.1448 16.8328C84.2369 17.6576 84.3986 18.7463 84.7716 19.5004C84.9431 19.8473 85.1741 20.1295 85.5949 20.1295C85.7764 20.1295 86.04 20.0285 86.1938 19.9644C86.5377 19.8132 86.8705 19.6384 87.1899 19.4429C87.5691 19.2111 87.9355 18.9585 88.29 18.6926C88.6489 18.4234 89.0016 18.1452 89.3432 17.8554C89.6636 17.5834 89.9776 17.304 90.288 17.0076C90.6008 16.7188 90.9083 16.4245 91.2157 16.1304C91.537 15.8232 91.8551 15.5131 92.1711 15.2007C92.4295 14.9451 92.6882 14.6899 92.949 14.4363C92.9834 14.0049 93.0224 13.574 93.0604 13.1428C93.0899 12.8061 93.1335 12.4468 93.2236 12.1193C93.2741 11.9012 93.3902 11.699 93.5187 11.5158C93.6569 11.3186 93.8139 11.1345 93.9889 10.9671C94.1632 10.8002 94.3494 10.6467 94.5564 10.5196C94.7781 10.3749 95.0274 10.2708 95.2985 10.2708C95.6081 10.2708 95.9031 10.34 96.1669 10.5208C96.3783 10.6712 96.543 10.865 96.6685 11.0876C96.7982 11.3178 96.8723 11.5732 96.9166 11.8312C96.9599 12.0843 96.9829 12.3395 96.9829 12.5962C96.9829 12.9206 96.9439 13.2543 96.9041 13.5763C96.8541 13.9804 96.7923 14.3834 96.7243 14.785C96.6487 15.232 96.5622 15.6774 96.4765 16.1228C96.3918 16.5619 96.3087 17.0013 96.2186 17.4394C96.1405 17.8195 96.0629 18.1998 95.9903 18.581C95.9385 18.8538 95.8847 19.1326 95.8517 19.4081C95.8517 19.4177 95.8491 19.4258 95.8478 19.4355C95.836 19.5027 95.8245 19.5701 95.8132 19.6377C96.0804 19.2612 96.3344 18.8749 96.5861 18.4886C96.8681 18.0559 97.145 17.62 97.4213 17.184C97.6442 16.8322 97.8619 16.4772 98.0806 16.123C98.3328 15.7152 98.5941 15.3127 98.8594 14.9127C99.1186 14.5216 99.387 14.1362 99.6653 13.7576C99.9027 13.4347 100.152 13.1141 100.421 12.8157C100.854 12.3361 101.356 11.8975 101.932 11.5866C102.47 11.2961 103.056 11.1391 103.672 11.1391C104.346 11.1391 104.921 11.4059 105.384 11.8793C105.86 12.3655 106.132 12.9798 106.269 13.6315C106.342 13.9762 106.395 14.3235 106.428 14.6738C106.464 15.0656 106.502 15.4572 106.53 15.8496C106.56 16.2562 106.589 16.663 106.616 17.0699C106.641 17.4524 106.666 17.8352 106.7 18.2173C106.724 18.4813 106.756 18.7615 106.82 19.0193C106.838 19.0888 106.857 19.1598 106.877 19.2304C107.041 18.9979 107.208 18.7184 107.276 18.6028C107.543 18.1505 107.805 17.6965 108.073 17.2448C108.398 16.6962 108.719 16.1459 109.047 15.599C109.408 14.9969 109.8 14.4126 110.221 13.8484C110.607 13.3298 111.013 12.8209 111.456 12.3464C111.814 11.962 112.208 11.5792 112.639 11.2707C112.985 11.0228 113.403 10.7907 113.845 10.7907C114.044 10.7907 114.242 10.8105 114.42 10.8444C114.629 10.8772 114.836 10.9351 115.031 11.0139C115.214 11.0876 115.39 11.178 115.553 11.2881C115.561 11.2935 115.567 11.2984 115.575 11.3042C115.736 11.425 115.876 11.567 115.982 11.7359C116.176 12.0434 116.309 12.3785 116.388 12.7303C116.472 13.1058 116.521 13.4903 116.549 13.8735C116.582 14.3236 116.611 14.7741 116.635 15.2248C116.664 15.7619 116.706 16.298 116.766 16.8328C116.858 17.6576 117.02 18.7463 117.393 19.5004C117.564 19.8473 117.795 20.1295 118.216 20.1295C118.398 20.1295 118.661 20.0285 118.815 19.9644C119.159 19.8132 119.492 19.6384 119.811 19.4429C120.19 19.2111 120.557 18.9585 120.911 18.6926C121.27 18.4234 121.623 18.1452 121.965 17.8554C122.285 17.5834 122.599 17.304 122.909 17.0076C123.222 16.7188 123.53 16.4245 123.837 16.1304C124.158 15.823 124.476 15.5126 124.793 15.2004L125.09 14.9066C125.361 14.5119 125.647 14.1262 125.949 13.7533C126.391 13.2065 126.888 12.7007 127.416 12.2322C127.968 11.7426 128.555 11.2929 129.175 10.8878C129.748 10.5136 130.352 10.1826 130.987 9.91903C131.525 9.69573 132.119 9.52719 132.708 9.52719C132.939 9.52719 133.171 9.52719 133.402 9.52719C133.667 9.52719 133.932 9.53856 134.196 9.56688C134.455 9.59493 134.714 9.63801 134.968 9.69898C135.248 9.76634 135.519 9.87162 135.763 10.0224C135.956 10.1415 136.118 10.3377 136.241 10.5095C136.396 10.7163 136.529 10.9381 136.639 11.1585C136.761 11.3908 136.866 11.6322 136.943 11.87C137.017 12.0816 137.085 12.3247 137.085 12.5495C137.085 13.0308 136.962 13.5587 136.833 14.0225C136.683 14.6591 136.532 15.2957 136.375 15.9309C136.242 16.4706 136.177 17.0227 136.177 17.5776C136.177 17.8837 136.23 18.1862 136.323 18.4781C136.417 18.7754 136.554 19.0524 136.74 19.3052C136.91 19.5358 137.113 19.7334 137.361 19.8834C137.591 20.022 137.84 20.0827 138.11 20.0827C138.713 20.0827 139.3 19.9486 139.859 19.7314C140.535 19.468 141.175 19.1188 141.777 18.7205C142.475 18.2588 143.137 17.7458 143.764 17.1958C144.438 16.6047 145.09 15.9911 145.717 15.3527C145.802 15.2465 145.9 15.1434 145.984 15.0482C146.121 14.8878 146.266 14.7351 146.412 14.5827C146.557 14.4304 146.707 14.2827 146.868 14.145C147.052 13.9863 147.273 13.8378 147.53 13.8378C148.207 13.8378 148.418 14.4488 148.418 15.0038C148.418 15.1802 148.394 15.3603 148.361 15.5337C148.324 15.7282 148.275 15.9192 148.211 16.107C148.154 16.2947 148.084 16.4767 148.005 16.6566C147.931 16.8246 147.842 16.9948 147.728 17.1408C147.634 17.2615 147.534 17.3781 147.431 17.4917C147.3 17.6482 147.165 17.8019 147.028 17.9529C146.867 18.1294 146.702 18.3025 146.536 18.4742C146.352 18.6638 146.16 18.8455 145.969 19.0101C145.338 19.5787 144.7 20.1398 144.061 20.6998C143.439 21.2451 142.776 21.7475 142.074 22.1918C141.392 22.6232 140.666 22.9792 139.901 23.2461C139.092 23.5278 138.24 23.6387 137.383 23.6313C136.923 23.6274 136.47 23.5476 136.037 23.3972C135.584 23.2403 135.163 23.0135 134.78 22.7305C134.385 22.4384 134.047 22.0888 133.766 21.6904C133.657 21.5358 133.56 21.3754 133.475 21.2096C133.362 21.3219 133.25 21.4339 133.137 21.5457C132.791 21.8872 132.439 22.222 132.084 22.5542C131.714 22.9002 131.331 23.2327 130.938 23.5523C130.54 23.8751 130.128 24.1815 129.695 24.4577C129.416 24.6356 129.119 24.7928 128.824 24.9427C128.484 25.1152 128.135 25.272 127.771 25.4188C127.404 25.5596 127.03 25.6835 126.655 25.7717C126.302 25.8617 125.935 25.9192 125.569 25.9192C125.019 25.9192 124.518 25.7478 124.102 25.3962C123.733 25.0835 123.434 24.7099 123.206 24.2886C122.977 23.8667 122.809 23.4191 122.701 22.9538C122.606 22.5431 122.538 22.1125 122.538 21.6906C122.538 21.4898 122.546 21.2896 122.563 21.09H122.561ZM8.81347 11.3379C8.69189 11.7517 8.57314 12.1662 8.4538 12.5805C8.28378 13.1705 8.12434 13.7632 7.96268 14.3554C7.81801 14.8854 7.68143 15.4172 7.54971 15.9504C7.43607 16.411 7.31952 16.8708 7.20311 17.3307C7.09938 17.7403 6.99702 18.1502 6.89664 18.5605C6.89407 18.5665 6.89382 18.5715 6.89228 18.5775C6.56173 19.7578 6.24926 20.9448 5.93358 22.1291C5.68141 23.075 5.54165 24.0435 5.54165 25.0214C5.54165 25.2783 5.57047 25.5474 5.59651 25.8031C5.63829 26.2125 5.70261 26.6221 5.77655 27.0268C5.85842 27.4767 5.92316 27.9298 5.96813 28.3845C6.00336 28.7406 6.02829 29.1002 6.02829 29.4582C6.02829 29.9956 5.73103 30.5336 5.42036 30.9613C5.08216 31.4272 4.59883 31.8822 3.97295 31.8822C3.78581 31.8822 3.59084 31.8617 3.4048 31.8414C3.25205 31.8247 3.0893 31.8074 2.93544 31.8074C1.89431 31.8074 1.24684 31.1387 0.89678 30.2352C0.559813 29.3651 0.393433 28.4565 0.393433 27.5266C0.393433 27.1389 0.498937 26.6909 0.596013 26.316C0.671876 26.0233 0.745979 25.7301 0.818657 25.4366C0.915014 25.0479 1.02114 24.6611 1.12096 24.2732C1.12353 24.2663 1.1243 24.2606 1.12635 24.2538C1.22381 23.9262 1.31642 23.5973 1.40345 23.267C1.44244 23.1191 1.47987 22.9708 1.51901 22.8231C1.76588 21.8946 2.01584 20.967 2.26942 20.0402C2.46909 19.3101 2.66901 18.58 2.87189 17.8509C3.05487 17.1935 3.23519 16.5355 3.41565 15.8774C3.61545 15.1491 3.80594 14.4184 4.01258 13.6918C4.22409 12.9472 4.44351 12.2051 4.66841 11.4643C4.84065 10.8969 4.98172 10.3211 5.08727 9.7555C5.1573 9.2994 5.22385 8.83071 5.31574 8.3784C5.3848 8.03831 5.48869 7.70646 5.60413 7.37896C5.72108 7.04739 5.8503 6.7199 5.98719 6.39564C6.26442 5.7382 6.74577 5.07493 7.55269 5.07493C8.32912 5.07493 9.18877 5.12885 9.93387 5.35487C10.6932 5.58523 11.2263 6.13764 11.597 6.78399C11.7793 7.07951 11.9471 7.38436 12.0784 7.69385C12.2162 8.00239 12.3258 8.32055 12.4224 8.64332C12.5252 8.98627 12.62 9.33179 12.7097 9.67824C12.8234 10.118 12.9243 10.5613 13.0164 11.0058C13.0624 11.227 13.1218 11.4459 13.21 11.6551C13.3268 11.9323 13.4314 12.2152 13.5376 12.4965C13.5402 12.5029 13.542 12.5084 13.544 12.5151C14.4829 15.311 15.8509 17.9535 17.4833 20.4248C17.5296 20.3936 17.5737 20.3637 17.6142 20.336C17.743 20.2394 17.8762 20.1418 17.9974 20.0368C18.0015 20.0332 18.0049 20.0303 18.0093 20.0268C18.0834 19.9661 18.1592 19.8985 18.2175 19.8229C18.2224 19.8166 18.2265 19.8113 18.2317 19.8052C18.4139 19.5884 18.5856 19.3621 18.7512 19.1329C18.937 18.8754 19.1014 18.6027 19.2526 18.3248C19.2565 18.3177 19.2598 18.3117 19.2639 18.3048C19.6185 17.7142 19.9707 17.1219 20.3283 16.5329C20.6679 15.9737 21.0604 15.4457 21.511 14.966C21.5148 14.9618 21.5182 14.9583 21.5223 14.9542C21.7594 14.7165 21.9799 14.4482 22.195 14.1915C22.5069 13.8194 22.8127 13.4422 23.1144 13.0622C23.4221 12.6747 23.7343 12.2908 24.0487 11.9084C24.2708 11.6382 24.4932 11.3679 24.7183 11.1001C24.7237 11.0938 24.7284 11.0885 24.7337 11.0826C24.9309 10.8674 25.1252 10.6495 25.3106 10.4247C25.4805 10.2187 25.6494 10.0119 25.8135 9.80129C25.9981 9.5639 26.1856 9.32881 26.3701 9.09126C26.5988 8.79697 26.8199 8.49671 27.0445 8.19955C27.0532 8.18817 27.0607 8.17868 27.0703 8.16797C27.2532 7.96026 27.4291 7.74345 27.6173 7.52313C27.7257 7.40198 27.8304 7.27828 27.9321 7.15187C27.9984 7.06963 28.0743 6.98209 28.1323 6.89427C28.1376 6.88642 28.1423 6.87977 28.1479 6.87205C28.3972 6.53263 28.6425 6.19077 28.8816 5.8443C29.1806 5.41123 29.4617 4.9642 29.7418 4.50798C30.0273 4.06165 30.3179 3.61858 30.6123 3.17792C30.8217 2.86453 31.0343 2.55124 31.2579 2.24745C31.4445 1.96847 31.7568 1.85153 32.0904 1.84718C32.405 1.82982 32.728 1.91616 33.0168 2.02985C33.3347 2.15491 33.6423 2.30723 33.9337 2.48283C34.2163 2.65301 34.4896 2.84988 34.723 3.08078C34.9747 3.32996 35.166 3.64013 35.1257 3.99824C35.121 4.19756 35.0812 4.39784 34.9905 4.56354C34.9116 4.71652 34.8108 4.86164 34.706 4.99905C34.6196 5.12764 34.5326 5.25567 34.45 5.36882C34.4444 5.37723 34.4351 5.3909 34.4346 5.38019C34.4346 5.48155 34.4086 5.57152 34.3791 5.66706C34.3765 5.67248 34.376 5.67695 34.3744 5.68155C34.3542 5.74403 34.3411 5.8264 34.3278 5.89143C34.3247 5.90662 34.3216 5.9195 34.317 5.93453C34.2634 6.11691 34.2047 6.29728 34.148 6.47883C34.1449 6.4886 34.1421 6.49685 34.1385 6.50648C34.1115 6.57855 34.0799 6.66312 34.0627 6.73805C34.0602 6.74971 34.0573 6.75974 34.054 6.77124C33.9404 7.15241 33.8593 7.5394 33.8092 7.9333C33.756 8.35035 33.7367 8.77368 33.7367 9.19386C33.7367 10.1222 33.6966 11.0498 33.6271 11.9651C33.5995 12.459 33.5497 12.9523 33.4966 13.4442C33.4393 13.976 33.3815 14.5077 33.3238 15.0396C33.2656 15.5766 33.2046 16.113 33.1441 16.6497C33.0881 17.1462 33.0306 17.6428 32.9652 18.1222C32.8738 18.9951 32.8118 19.8711 32.7691 20.7476C32.7227 21.6978 32.7057 22.6495 32.7057 23.6007C32.7057 24.4519 32.7229 25.3042 32.744 26.155C32.7717 27.281 32.7952 28.407 32.8166 29.533C32.9594 29.6537 33.1226 29.7682 33.2673 29.8688C33.5551 30.0475 33.8573 30.2518 34.1033 30.482C34.1089 30.4873 34.1138 30.4919 34.1192 30.4975C34.3869 30.7689 34.505 31.1165 34.505 31.4896C34.505 32.1988 34.0955 32.7834 33.5696 33.24C33.0546 33.6874 32.4282 34.0382 31.7196 34.0382C29.9177 34.0382 29.042 32.6788 28.6438 31.1426C28.2004 29.4331 27.9736 27.6816 27.9736 25.9188C27.9736 25.3443 28.0078 24.7701 28.0876 24.2007C28.1639 23.6559 28.2348 23.1105 28.2899 22.5633C28.3469 21.9979 28.4062 21.4329 28.4701 20.8681C28.5739 19.9518 28.6797 19.0359 28.7839 18.1198C28.879 17.2845 28.9775 16.449 29.0652 15.6131C29.101 15.2719 29.1317 14.9253 29.1754 14.5852C29.1754 14.5798 29.1754 14.5753 29.1779 14.5701C29.1977 14.4447 29.2064 14.3095 29.2189 14.1829C29.2448 13.9223 29.277 13.6617 29.3102 13.4018C29.3789 12.8629 29.4484 12.3209 29.4935 11.7797C29.5097 11.584 29.5255 11.3854 29.5361 11.1868C29.2497 11.5606 28.9613 11.9345 28.6728 12.3205C28.0643 13.0962 27.4653 13.8783 26.8742 14.6667C26.8711 14.6707 26.8685 14.6741 26.8655 14.6781C26.6299 14.9755 26.4034 15.2795 26.173 15.5806C25.9375 15.8882 25.7037 16.1967 25.4646 16.5016C25.1917 16.8498 24.918 17.1973 24.6466 17.5466C24.3022 17.9898 23.9693 18.4425 23.6367 18.8941C22.826 19.9942 22.0219 21.0991 21.2313 22.2129C21.1693 22.3116 21.0997 22.408 21.0295 22.5011C20.9238 22.6582 20.8091 22.8104 20.7019 22.9667C20.5732 23.1544 20.3585 23.4973 20.1905 23.6769C19.5266 24.5282 18.5845 25.5346 17.4962 25.8358C17.3914 25.8648 17.294 25.8645 17.1893 25.835C16.0859 25.525 15.0018 24.977 14.4091 23.9776C14.3056 23.803 14.2023 23.6281 14.1052 23.4502C14.0326 23.3174 13.956 23.1868 13.8805 23.0556C13.8057 22.9257 13.725 22.7993 13.65 22.6693C13.5717 22.5332 13.4898 22.3987 13.4097 22.2634C13.1793 21.8741 12.9538 21.4822 12.7317 21.0883C12.552 20.7695 12.3669 20.4536 12.1873 20.1347C11.8502 19.5362 11.5362 18.9253 11.2463 18.3037C10.9348 17.6354 10.6585 16.9514 10.4041 16.2466C10.278 15.8682 10.1572 15.4877 10.0278 15.1103C9.95704 14.9037 9.89105 14.6867 9.81154 14.4838C9.80872 14.4763 9.80614 14.47 9.80383 14.4624C9.73572 14.2639 9.67086 14.0643 9.60401 13.8524C9.51908 13.5593 9.42758 13.2678 9.34193 12.9749C9.24182 12.6329 9.13518 12.2926 9.02154 11.9547C8.95235 11.749 8.88385 11.5432 8.8141 11.3378L8.81347 11.3379ZM213.492 2.98836C213.356 3.71004 213.039 4.35339 212.493 4.84768C211.912 5.39849 211.171 5.55717 210.382 5.41639C209.879 5.32681 209.386 5.15622 208.91 4.95147C208.37 4.70772 207.85 4.28686 207.972 3.64268C208.088 3.02293 208.4 2.48607 208.857 2.04339C209.296 1.61805 209.797 1.2743 210.369 1.04002C210.379 1.03624 210.387 1.03311 210.397 1.02971C210.687 0.92809 211.126 0.778485 211.436 0.833653C211.964 0.927961 212.542 1.08756 212.979 1.40328C213.508 1.78499 213.605 2.38946 213.492 2.98836Z" fill="white"/>
</svg>
